<mxfile host="65bd71144e">
    <diagram id="VB0hbfkeHOA_Rv-9jmJC" name="PÃ¡gina-1">
        <mxGraphModel dx="97" dy="383" grid="1" gridSize="10" guides="1" tooltips="1" connect="1" arrows="1" fold="1" page="1" pageScale="1" pageWidth="827" pageHeight="1169" math="0" shadow="0">
            <root>
                <mxCell id="0"/>
                <mxCell id="1" parent="0"/>
                <mxCell id="11" style="edgeStyle=none;html=1;exitX=1;exitY=0.5;exitDx=0;exitDy=0;entryX=0;entryY=0.5;entryDx=0;entryDy=0;startArrow=ERone;startFill=0;endArrow=ERoneToMany;endFill=0;" parent="1" source="6" target="7" edge="1">
                    <mxGeometry relative="1" as="geometry"/>
                </mxCell>
                <mxCell id="6" value="User" style="swimlane;" parent="1" vertex="1">
                    <mxGeometry x="80" y="60" width="120" height="130" as="geometry"/>
                </mxCell>
                <mxCell id="9" value="_id&lt;br&gt;email&lt;br&gt;password&lt;br&gt;created_at" style="text;html=1;align=left;verticalAlign=middle;resizable=0;points=[];autosize=1;strokeColor=none;fillColor=none;" parent="6" vertex="1">
                    <mxGeometry x="10" y="30" width="70" height="60" as="geometry"/>
                </mxCell>
                <mxCell id="7" value="gestation" style="swimlane;" parent="1" vertex="1">
                    <mxGeometry x="330" y="60" width="130" height="130" as="geometry"/>
                </mxCell>
                <mxCell id="10" value="_id&lt;br&gt;gallery&lt;br&gt;lastMenstruation&lt;br&gt;created_at&lt;br&gt;userId" style="text;html=1;align=left;verticalAlign=middle;resizable=0;points=[];autosize=1;strokeColor=none;fillColor=none;" parent="7" vertex="1">
                    <mxGeometry x="10" y="30" width="100" height="80" as="geometry"/>
                </mxCell>
            </root>
        </mxGraphModel>
    </diagram>
</mxfile>